<svg xmlns="http://www.w3.org/2000/svg" version="1.1" xmlns:xlink="http://www.w3.org/1999/xlink" xmlns:svgjs="http://svgjs.dev/svgjs" width="1500" height="935" viewBox="0 0 1500 935">
  <g transform="matrix(1,0,0,1,-0.9090909090909918,0.3785425101214628)">
    <svg viewBox="0 0 396 247" data-background-color="#ffffff" preserveAspectRatio="xMidYMid meet" height="935" width="1500" xmlns="http://www.w3.org/2000/svg" xmlns:xlink="http://www.w3.org/1999/xlink">
      <g id="tight-bounds" transform="matrix(1,0,0,1,0.2400000000000091,-0.09999999999999432)">
        <svg viewBox="0 0 395.52 247.2" height="247.2" width="395.52">
          <g>
            <svg></svg>
          </g>
          <g>
            <svg viewBox="0 0 395.52 247.2" height="247.2" width="395.52">
              <g transform="matrix(1,0,0,1,77.6554218487395,47.215199999999996)">
                <svg viewBox="0 0 240.209156302521 152.7696" height="152.7696" width="240.209156302521">
                  <g>
                    <svg viewBox="0 0 240.209156302521 152.7696" height="152.7696" width="240.209156302521">
                      <g>
                        <svg viewBox="0 0 240.209156302521 152.7696" height="152.7696" width="240.209156302521">
                          <g>
                            <svg viewBox="0 0 240.209156302521 152.7696" height="152.7696" width="240.209156302521">
                              <g id="textblocktransform">
                                <svg viewBox="0 0 240.209156302521 152.7696" height="152.7696" width="240.209156302521" id="textblock">
                                  <g>
                                    <svg viewBox="0 0 240.209156302521 152.7696" height="152.7696" width="240.209156302521">
                                      <g transform="matrix(1,0,0,1,0,0)">
                                        <svg width="240.209156302521" viewBox="2.54 -26.15 41.11 26.15" height="152.7696" data-palette-color="#2a2c35">
                                          <path d="M9.2-14.4L9.2 0 2.54 0 2.54-26.15 4.15-26.15 6.35-23.05Q7.96-24.51 10.01-25.31 12.06-26.1 14.26-26.1L14.26-26.1 20.14-26.1 20.14-19.46 14.26-19.46Q13.21-19.46 12.28-19.07 11.35-18.68 10.67-17.99 9.99-17.31 9.59-16.38 9.2-15.45 9.2-14.4L9.2-14.4ZM43.65-6.64L43.65 0 21.85 0 32.86-19.46 21.85-19.46 21.85-26.1 43.65-26.1 32.64-6.64 43.65-6.64Z" opacity="1" transform="matrix(1,0,0,1,0,0)" fill="#2a2c35" class="wordmark-text-0" data-fill-palette-color="primary" id="text-0"></path>
                                        </svg>
                                      </g>
                                    </svg>
                                  </g>
                                </svg>
                              </g>
                            </svg>
                          </g>
                        </svg>
                      </g>
                    </svg>
                  </g>
                </svg>
              </g>
              <path d="M259.957 41.215L259.957 0 12.757 0 12.757 247.2 259.957 247.2 259.957 205.985 246.18 205.985 246.18 233.423 26.534 233.423 26.534 13.777 246.18 13.777 246.18 41.215Z" fill="#2a2c35" stroke="transparent" data-fill-palette-color="tertiary"></path>
            </svg>
          </g>
          <defs></defs>
        </svg>
        <rect width="395.52" height="247.2" fill="none" stroke="none" visibility="hidden"></rect>
      </g>
    </svg>
  </g>
</svg>
